%TF.GenerationSoftware,KiCad,Pcbnew,(6.0.2)*%
%TF.CreationDate,2022-03-04T14:07:56+01:00*%
%TF.ProjectId,interfacev1,696e7465-7266-4616-9365-76312e6b6963,rev?*%
%TF.SameCoordinates,Original*%
%TF.FileFunction,Legend,Top*%
%TF.FilePolarity,Positive*%
%FSLAX46Y46*%
G04 Gerber Fmt 4.6, Leading zero omitted, Abs format (unit mm)*
G04 Created by KiCad (PCBNEW (6.0.2)) date 2022-03-04 14:07:56*
%MOMM*%
%LPD*%
G01*
G04 APERTURE LIST*
%ADD10C,0.150000*%
%ADD11C,0.127000*%
%ADD12C,0.200000*%
%ADD13C,0.120000*%
G04 APERTURE END LIST*
D10*
X118078571Y-90574761D02*
X118173809Y-90622380D01*
X118364285Y-90622380D01*
X118459523Y-90574761D01*
X118507142Y-90479523D01*
X118507142Y-90431904D01*
X118459523Y-90336666D01*
X118364285Y-90289047D01*
X118221428Y-90289047D01*
X118126190Y-90241428D01*
X118078571Y-90146190D01*
X118078571Y-90098571D01*
X118126190Y-90003333D01*
X118221428Y-89955714D01*
X118364285Y-89955714D01*
X118459523Y-90003333D01*
X118792857Y-89955714D02*
X119173809Y-89955714D01*
X118935714Y-89622380D02*
X118935714Y-90479523D01*
X118983333Y-90574761D01*
X119078571Y-90622380D01*
X119173809Y-90622380D01*
X119888095Y-90574761D02*
X119792857Y-90622380D01*
X119602380Y-90622380D01*
X119507142Y-90574761D01*
X119459523Y-90479523D01*
X119459523Y-90098571D01*
X119507142Y-90003333D01*
X119602380Y-89955714D01*
X119792857Y-89955714D01*
X119888095Y-90003333D01*
X119935714Y-90098571D01*
X119935714Y-90193809D01*
X119459523Y-90289047D01*
X120364285Y-89955714D02*
X120364285Y-90955714D01*
X120364285Y-90003333D02*
X120459523Y-89955714D01*
X120650000Y-89955714D01*
X120745238Y-90003333D01*
X120792857Y-90050952D01*
X120840476Y-90146190D01*
X120840476Y-90431904D01*
X120792857Y-90527142D01*
X120745238Y-90574761D01*
X120650000Y-90622380D01*
X120459523Y-90622380D01*
X120364285Y-90574761D01*
X121269047Y-89955714D02*
X121269047Y-90955714D01*
X121269047Y-90003333D02*
X121364285Y-89955714D01*
X121554761Y-89955714D01*
X121650000Y-90003333D01*
X121697619Y-90050952D01*
X121745238Y-90146190D01*
X121745238Y-90431904D01*
X121697619Y-90527142D01*
X121650000Y-90574761D01*
X121554761Y-90622380D01*
X121364285Y-90622380D01*
X121269047Y-90574761D01*
X122554761Y-90574761D02*
X122459523Y-90622380D01*
X122269047Y-90622380D01*
X122173809Y-90574761D01*
X122126190Y-90479523D01*
X122126190Y-90098571D01*
X122173809Y-90003333D01*
X122269047Y-89955714D01*
X122459523Y-89955714D01*
X122554761Y-90003333D01*
X122602380Y-90098571D01*
X122602380Y-90193809D01*
X122126190Y-90289047D01*
X123030952Y-90622380D02*
X123030952Y-89955714D01*
X123030952Y-90146190D02*
X123078571Y-90050952D01*
X123126190Y-90003333D01*
X123221428Y-89955714D01*
X123316666Y-89955714D01*
X71612380Y-70302380D02*
X71612380Y-69302380D01*
X72040952Y-70302380D02*
X72040952Y-69778571D01*
X71993333Y-69683333D01*
X71898095Y-69635714D01*
X71755238Y-69635714D01*
X71660000Y-69683333D01*
X71612380Y-69730952D01*
X72421904Y-70302380D02*
X72945714Y-69635714D01*
X72421904Y-69635714D02*
X72945714Y-70302380D01*
X73231428Y-69302380D02*
X73898095Y-69302380D01*
X73469523Y-70302380D01*
X74802857Y-70302380D02*
X74231428Y-70302380D01*
X74517142Y-70302380D02*
X74517142Y-69302380D01*
X74421904Y-69445238D01*
X74326666Y-69540476D01*
X74231428Y-69588095D01*
X75755238Y-70302380D02*
X75183809Y-70302380D01*
X75469523Y-70302380D02*
X75469523Y-69302380D01*
X75374285Y-69445238D01*
X75279047Y-69540476D01*
X75183809Y-69588095D01*
X82954761Y-69571904D02*
X83002380Y-69476666D01*
X83002380Y-69286190D01*
X82954761Y-69190952D01*
X82859523Y-69143333D01*
X82811904Y-69143333D01*
X82716666Y-69190952D01*
X82669047Y-69286190D01*
X82669047Y-69429047D01*
X82621428Y-69524285D01*
X82526190Y-69571904D01*
X82478571Y-69571904D01*
X82383333Y-69524285D01*
X82335714Y-69429047D01*
X82335714Y-69286190D01*
X82383333Y-69190952D01*
X82954761Y-68286190D02*
X83002380Y-68381428D01*
X83002380Y-68571904D01*
X82954761Y-68667142D01*
X82907142Y-68714761D01*
X82811904Y-68762380D01*
X82526190Y-68762380D01*
X82430952Y-68714761D01*
X82383333Y-68667142D01*
X82335714Y-68571904D01*
X82335714Y-68381428D01*
X82383333Y-68286190D01*
X83002380Y-67857619D02*
X82335714Y-67857619D01*
X82526190Y-67857619D02*
X82430952Y-67810000D01*
X82383333Y-67762380D01*
X82335714Y-67667142D01*
X82335714Y-67571904D01*
X82954761Y-66857619D02*
X83002380Y-66952857D01*
X83002380Y-67143333D01*
X82954761Y-67238571D01*
X82859523Y-67286190D01*
X82478571Y-67286190D01*
X82383333Y-67238571D01*
X82335714Y-67143333D01*
X82335714Y-66952857D01*
X82383333Y-66857619D01*
X82478571Y-66810000D01*
X82573809Y-66810000D01*
X82669047Y-67286190D01*
X82954761Y-66000476D02*
X83002380Y-66095714D01*
X83002380Y-66286190D01*
X82954761Y-66381428D01*
X82859523Y-66429047D01*
X82478571Y-66429047D01*
X82383333Y-66381428D01*
X82335714Y-66286190D01*
X82335714Y-66095714D01*
X82383333Y-66000476D01*
X82478571Y-65952857D01*
X82573809Y-65952857D01*
X82669047Y-66429047D01*
X82335714Y-65524285D02*
X83002380Y-65524285D01*
X82430952Y-65524285D02*
X82383333Y-65476666D01*
X82335714Y-65381428D01*
X82335714Y-65238571D01*
X82383333Y-65143333D01*
X82478571Y-65095714D01*
X83002380Y-65095714D01*
X75819047Y-81351428D02*
X76580952Y-81351428D01*
X76414285Y-79192380D02*
X76414285Y-78192380D01*
X76414285Y-79144761D02*
X76319047Y-79192380D01*
X76128571Y-79192380D01*
X76033333Y-79144761D01*
X75985714Y-79097142D01*
X75938095Y-79001904D01*
X75938095Y-78716190D01*
X75985714Y-78620952D01*
X76033333Y-78573333D01*
X76128571Y-78525714D01*
X76319047Y-78525714D01*
X76414285Y-78573333D01*
X76438095Y-76604761D02*
X76342857Y-76652380D01*
X76152380Y-76652380D01*
X76057142Y-76604761D01*
X76009523Y-76557142D01*
X75961904Y-76461904D01*
X75961904Y-76176190D01*
X76009523Y-76080952D01*
X76057142Y-76033333D01*
X76152380Y-75985714D01*
X76342857Y-75985714D01*
X76438095Y-76033333D01*
X75819047Y-73731428D02*
X76580952Y-73731428D01*
X76200000Y-74112380D02*
X76200000Y-73350476D01*
X131288452Y-57262380D02*
X131193214Y-57214761D01*
X131145595Y-57119523D01*
X131145595Y-56262380D01*
X131669404Y-57262380D02*
X131669404Y-56595714D01*
X131669404Y-56262380D02*
X131621785Y-56310000D01*
X131669404Y-56357619D01*
X131717023Y-56310000D01*
X131669404Y-56262380D01*
X131669404Y-56357619D01*
X132145595Y-57262380D02*
X132145595Y-56595714D01*
X132145595Y-56690952D02*
X132193214Y-56643333D01*
X132288452Y-56595714D01*
X132431309Y-56595714D01*
X132526547Y-56643333D01*
X132574166Y-56738571D01*
X132574166Y-57262380D01*
X132574166Y-56738571D02*
X132621785Y-56643333D01*
X132717023Y-56595714D01*
X132859880Y-56595714D01*
X132955119Y-56643333D01*
X133002738Y-56738571D01*
X133002738Y-57262380D01*
X133478928Y-57262380D02*
X133478928Y-56595714D01*
X133478928Y-56262380D02*
X133431309Y-56310000D01*
X133478928Y-56357619D01*
X133526547Y-56310000D01*
X133478928Y-56262380D01*
X133478928Y-56357619D01*
X133812261Y-56595714D02*
X134193214Y-56595714D01*
X133955119Y-56262380D02*
X133955119Y-57119523D01*
X134002738Y-57214761D01*
X134097976Y-57262380D01*
X134193214Y-57262380D01*
X135240833Y-57214761D02*
X135336071Y-57262380D01*
X135526547Y-57262380D01*
X135621785Y-57214761D01*
X135669404Y-57119523D01*
X135669404Y-57071904D01*
X135621785Y-56976666D01*
X135526547Y-56929047D01*
X135383690Y-56929047D01*
X135288452Y-56881428D01*
X135240833Y-56786190D01*
X135240833Y-56738571D01*
X135288452Y-56643333D01*
X135383690Y-56595714D01*
X135526547Y-56595714D01*
X135621785Y-56643333D01*
X136002738Y-56595714D02*
X136193214Y-57262380D01*
X136383690Y-56786190D01*
X136574166Y-57262380D01*
X136764642Y-56595714D01*
X137145595Y-57262380D02*
X137145595Y-56595714D01*
X137145595Y-56262380D02*
X137097976Y-56310000D01*
X137145595Y-56357619D01*
X137193214Y-56310000D01*
X137145595Y-56262380D01*
X137145595Y-56357619D01*
X137478928Y-56595714D02*
X137859880Y-56595714D01*
X137621785Y-56262380D02*
X137621785Y-57119523D01*
X137669404Y-57214761D01*
X137764642Y-57262380D01*
X137859880Y-57262380D01*
X138621785Y-57214761D02*
X138526547Y-57262380D01*
X138336071Y-57262380D01*
X138240833Y-57214761D01*
X138193214Y-57167142D01*
X138145595Y-57071904D01*
X138145595Y-56786190D01*
X138193214Y-56690952D01*
X138240833Y-56643333D01*
X138336071Y-56595714D01*
X138526547Y-56595714D01*
X138621785Y-56643333D01*
X139050357Y-57262380D02*
X139050357Y-56262380D01*
X139478928Y-57262380D02*
X139478928Y-56738571D01*
X139431309Y-56643333D01*
X139336071Y-56595714D01*
X139193214Y-56595714D01*
X139097976Y-56643333D01*
X139050357Y-56690952D01*
X140336071Y-57214761D02*
X140240833Y-57262380D01*
X140050357Y-57262380D01*
X139955119Y-57214761D01*
X139907500Y-57119523D01*
X139907500Y-56738571D01*
X139955119Y-56643333D01*
X140050357Y-56595714D01*
X140240833Y-56595714D01*
X140336071Y-56643333D01*
X140383690Y-56738571D01*
X140383690Y-56833809D01*
X139907500Y-56929047D01*
X140764642Y-57214761D02*
X140859880Y-57262380D01*
X141050357Y-57262380D01*
X141145595Y-57214761D01*
X141193214Y-57119523D01*
X141193214Y-57071904D01*
X141145595Y-56976666D01*
X141050357Y-56929047D01*
X140907500Y-56929047D01*
X140812261Y-56881428D01*
X140764642Y-56786190D01*
X140764642Y-56738571D01*
X140812261Y-56643333D01*
X140907500Y-56595714D01*
X141050357Y-56595714D01*
X141145595Y-56643333D01*
X131050357Y-58205714D02*
X131240833Y-58872380D01*
X131431309Y-58396190D01*
X131621785Y-58872380D01*
X131812261Y-58205714D01*
X132193214Y-58872380D02*
X132193214Y-58205714D01*
X132193214Y-57872380D02*
X132145595Y-57920000D01*
X132193214Y-57967619D01*
X132240833Y-57920000D01*
X132193214Y-57872380D01*
X132193214Y-57967619D01*
X132526547Y-58205714D02*
X132907500Y-58205714D01*
X132669404Y-57872380D02*
X132669404Y-58729523D01*
X132717023Y-58824761D01*
X132812261Y-58872380D01*
X132907500Y-58872380D01*
X133240833Y-58872380D02*
X133240833Y-57872380D01*
X133669404Y-58872380D02*
X133669404Y-58348571D01*
X133621785Y-58253333D01*
X133526547Y-58205714D01*
X133383690Y-58205714D01*
X133288452Y-58253333D01*
X133240833Y-58300952D01*
X135050357Y-58872380D02*
X134955119Y-58824761D01*
X134907500Y-58777142D01*
X134859880Y-58681904D01*
X134859880Y-58396190D01*
X134907500Y-58300952D01*
X134955119Y-58253333D01*
X135050357Y-58205714D01*
X135193214Y-58205714D01*
X135288452Y-58253333D01*
X135336071Y-58300952D01*
X135383690Y-58396190D01*
X135383690Y-58681904D01*
X135336071Y-58777142D01*
X135288452Y-58824761D01*
X135193214Y-58872380D01*
X135050357Y-58872380D01*
X135812261Y-58205714D02*
X135812261Y-59205714D01*
X135812261Y-58253333D02*
X135907500Y-58205714D01*
X136097976Y-58205714D01*
X136193214Y-58253333D01*
X136240833Y-58300952D01*
X136288452Y-58396190D01*
X136288452Y-58681904D01*
X136240833Y-58777142D01*
X136193214Y-58824761D01*
X136097976Y-58872380D01*
X135907500Y-58872380D01*
X135812261Y-58824761D01*
X136574166Y-58205714D02*
X136955119Y-58205714D01*
X136717023Y-57872380D02*
X136717023Y-58729523D01*
X136764642Y-58824761D01*
X136859880Y-58872380D01*
X136955119Y-58872380D01*
X137288452Y-58872380D02*
X137288452Y-58205714D01*
X137288452Y-57872380D02*
X137240833Y-57920000D01*
X137288452Y-57967619D01*
X137336071Y-57920000D01*
X137288452Y-57872380D01*
X137288452Y-57967619D01*
X137907500Y-58872380D02*
X137812261Y-58824761D01*
X137764642Y-58777142D01*
X137717023Y-58681904D01*
X137717023Y-58396190D01*
X137764642Y-58300952D01*
X137812261Y-58253333D01*
X137907500Y-58205714D01*
X138050357Y-58205714D01*
X138145595Y-58253333D01*
X138193214Y-58300952D01*
X138240833Y-58396190D01*
X138240833Y-58681904D01*
X138193214Y-58777142D01*
X138145595Y-58824761D01*
X138050357Y-58872380D01*
X137907500Y-58872380D01*
X138669404Y-58205714D02*
X138669404Y-58872380D01*
X138669404Y-58300952D02*
X138717023Y-58253333D01*
X138812261Y-58205714D01*
X138955119Y-58205714D01*
X139050357Y-58253333D01*
X139097976Y-58348571D01*
X139097976Y-58872380D01*
X140002738Y-58872380D02*
X140002738Y-58348571D01*
X139955119Y-58253333D01*
X139859880Y-58205714D01*
X139669404Y-58205714D01*
X139574166Y-58253333D01*
X140002738Y-58824761D02*
X139907500Y-58872380D01*
X139669404Y-58872380D01*
X139574166Y-58824761D01*
X139526547Y-58729523D01*
X139526547Y-58634285D01*
X139574166Y-58539047D01*
X139669404Y-58491428D01*
X139907500Y-58491428D01*
X140002738Y-58443809D01*
X140621785Y-58872380D02*
X140526547Y-58824761D01*
X140478928Y-58729523D01*
X140478928Y-57872380D01*
X131145595Y-59815714D02*
X131145595Y-60815714D01*
X131145595Y-59863333D02*
X131240833Y-59815714D01*
X131431309Y-59815714D01*
X131526547Y-59863333D01*
X131574166Y-59910952D01*
X131621785Y-60006190D01*
X131621785Y-60291904D01*
X131574166Y-60387142D01*
X131526547Y-60434761D01*
X131431309Y-60482380D01*
X131240833Y-60482380D01*
X131145595Y-60434761D01*
X132478928Y-59815714D02*
X132478928Y-60482380D01*
X132050357Y-59815714D02*
X132050357Y-60339523D01*
X132097976Y-60434761D01*
X132193214Y-60482380D01*
X132336071Y-60482380D01*
X132431309Y-60434761D01*
X132478928Y-60387142D01*
X133097976Y-60482380D02*
X133002738Y-60434761D01*
X132955119Y-60339523D01*
X132955119Y-59482380D01*
X133621785Y-60482380D02*
X133526547Y-60434761D01*
X133478928Y-60339523D01*
X133478928Y-59482380D01*
X135193214Y-59815714D02*
X135193214Y-60482380D01*
X134764642Y-59815714D02*
X134764642Y-60339523D01*
X134812261Y-60434761D01*
X134907500Y-60482380D01*
X135050357Y-60482380D01*
X135145595Y-60434761D01*
X135193214Y-60387142D01*
X135669404Y-59815714D02*
X135669404Y-60815714D01*
X135669404Y-59863333D02*
X135764642Y-59815714D01*
X135955119Y-59815714D01*
X136050357Y-59863333D01*
X136097976Y-59910952D01*
X136145595Y-60006190D01*
X136145595Y-60291904D01*
X136097976Y-60387142D01*
X136050357Y-60434761D01*
X135955119Y-60482380D01*
X135764642Y-60482380D01*
X135669404Y-60434761D01*
X137288452Y-59434761D02*
X136431309Y-60720476D01*
X138050357Y-60482380D02*
X138050357Y-59482380D01*
X138050357Y-60434761D02*
X137955119Y-60482380D01*
X137764642Y-60482380D01*
X137669404Y-60434761D01*
X137621785Y-60387142D01*
X137574166Y-60291904D01*
X137574166Y-60006190D01*
X137621785Y-59910952D01*
X137669404Y-59863333D01*
X137764642Y-59815714D01*
X137955119Y-59815714D01*
X138050357Y-59863333D01*
X138669404Y-60482380D02*
X138574166Y-60434761D01*
X138526547Y-60387142D01*
X138478928Y-60291904D01*
X138478928Y-60006190D01*
X138526547Y-59910952D01*
X138574166Y-59863333D01*
X138669404Y-59815714D01*
X138812261Y-59815714D01*
X138907500Y-59863333D01*
X138955119Y-59910952D01*
X139002738Y-60006190D01*
X139002738Y-60291904D01*
X138955119Y-60387142D01*
X138907500Y-60434761D01*
X138812261Y-60482380D01*
X138669404Y-60482380D01*
X139336071Y-59815714D02*
X139526547Y-60482380D01*
X139717023Y-60006190D01*
X139907500Y-60482380D01*
X140097976Y-59815714D01*
X140478928Y-59815714D02*
X140478928Y-60482380D01*
X140478928Y-59910952D02*
X140526547Y-59863333D01*
X140621785Y-59815714D01*
X140764642Y-59815714D01*
X140859880Y-59863333D01*
X140907500Y-59958571D01*
X140907500Y-60482380D01*
X142145595Y-60482380D02*
X142145595Y-59815714D01*
X142145595Y-60006190D02*
X142193214Y-59910952D01*
X142240833Y-59863333D01*
X142336071Y-59815714D01*
X142431309Y-59815714D01*
X143145595Y-60434761D02*
X143050357Y-60482380D01*
X142859880Y-60482380D01*
X142764642Y-60434761D01*
X142717023Y-60339523D01*
X142717023Y-59958571D01*
X142764642Y-59863333D01*
X142859880Y-59815714D01*
X143050357Y-59815714D01*
X143145595Y-59863333D01*
X143193214Y-59958571D01*
X143193214Y-60053809D01*
X142717023Y-60149047D01*
X143574166Y-60434761D02*
X143669404Y-60482380D01*
X143859880Y-60482380D01*
X143955119Y-60434761D01*
X144002738Y-60339523D01*
X144002738Y-60291904D01*
X143955119Y-60196666D01*
X143859880Y-60149047D01*
X143717023Y-60149047D01*
X143621785Y-60101428D01*
X143574166Y-60006190D01*
X143574166Y-59958571D01*
X143621785Y-59863333D01*
X143717023Y-59815714D01*
X143859880Y-59815714D01*
X143955119Y-59863333D01*
X144431309Y-60482380D02*
X144431309Y-59815714D01*
X144431309Y-59482380D02*
X144383690Y-59530000D01*
X144431309Y-59577619D01*
X144478928Y-59530000D01*
X144431309Y-59482380D01*
X144431309Y-59577619D01*
X144859880Y-60434761D02*
X144955119Y-60482380D01*
X145145595Y-60482380D01*
X145240833Y-60434761D01*
X145288452Y-60339523D01*
X145288452Y-60291904D01*
X145240833Y-60196666D01*
X145145595Y-60149047D01*
X145002738Y-60149047D01*
X144907500Y-60101428D01*
X144859880Y-60006190D01*
X144859880Y-59958571D01*
X144907500Y-59863333D01*
X145002738Y-59815714D01*
X145145595Y-59815714D01*
X145240833Y-59863333D01*
X145574166Y-59815714D02*
X145955119Y-59815714D01*
X145717023Y-59482380D02*
X145717023Y-60339523D01*
X145764642Y-60434761D01*
X145859880Y-60482380D01*
X145955119Y-60482380D01*
X146431309Y-60482380D02*
X146336071Y-60434761D01*
X146288452Y-60387142D01*
X146240833Y-60291904D01*
X146240833Y-60006190D01*
X146288452Y-59910952D01*
X146336071Y-59863333D01*
X146431309Y-59815714D01*
X146574166Y-59815714D01*
X146669404Y-59863333D01*
X146717023Y-59910952D01*
X146764642Y-60006190D01*
X146764642Y-60291904D01*
X146717023Y-60387142D01*
X146669404Y-60434761D01*
X146574166Y-60482380D01*
X146431309Y-60482380D01*
X147193214Y-60482380D02*
X147193214Y-59815714D01*
X147193214Y-60006190D02*
X147240833Y-59910952D01*
X147288452Y-59863333D01*
X147383690Y-59815714D01*
X147478928Y-59815714D01*
X114514285Y-47442380D02*
X114514285Y-46442380D01*
X114514285Y-47394761D02*
X114419047Y-47442380D01*
X114228571Y-47442380D01*
X114133333Y-47394761D01*
X114085714Y-47347142D01*
X114038095Y-47251904D01*
X114038095Y-46966190D01*
X114085714Y-46870952D01*
X114133333Y-46823333D01*
X114228571Y-46775714D01*
X114419047Y-46775714D01*
X114514285Y-46823333D01*
X111379047Y-47061428D02*
X112140952Y-47061428D01*
X111760000Y-47442380D02*
X111760000Y-46680476D01*
X116459047Y-47061428D02*
X117220952Y-47061428D01*
X124674285Y-47442380D02*
X124674285Y-46442380D01*
X124674285Y-47394761D02*
X124579047Y-47442380D01*
X124388571Y-47442380D01*
X124293333Y-47394761D01*
X124245714Y-47347142D01*
X124198095Y-47251904D01*
X124198095Y-46966190D01*
X124245714Y-46870952D01*
X124293333Y-46823333D01*
X124388571Y-46775714D01*
X124579047Y-46775714D01*
X124674285Y-46823333D01*
X121539047Y-47061428D02*
X122300952Y-47061428D01*
X121920000Y-47442380D02*
X121920000Y-46680476D01*
X126619047Y-47061428D02*
X127380952Y-47061428D01*
X104354285Y-47442380D02*
X104354285Y-46442380D01*
X104354285Y-47394761D02*
X104259047Y-47442380D01*
X104068571Y-47442380D01*
X103973333Y-47394761D01*
X103925714Y-47347142D01*
X103878095Y-47251904D01*
X103878095Y-46966190D01*
X103925714Y-46870952D01*
X103973333Y-46823333D01*
X104068571Y-46775714D01*
X104259047Y-46775714D01*
X104354285Y-46823333D01*
X106299047Y-47061428D02*
X107060952Y-47061428D01*
X101219047Y-47061428D02*
X101980952Y-47061428D01*
X101600000Y-47442380D02*
X101600000Y-46680476D01*
X89050952Y-71524761D02*
X89146190Y-71572380D01*
X89336666Y-71572380D01*
X89431904Y-71524761D01*
X89479523Y-71429523D01*
X89479523Y-71381904D01*
X89431904Y-71286666D01*
X89336666Y-71239047D01*
X89193809Y-71239047D01*
X89098571Y-71191428D01*
X89050952Y-71096190D01*
X89050952Y-71048571D01*
X89098571Y-70953333D01*
X89193809Y-70905714D01*
X89336666Y-70905714D01*
X89431904Y-70953333D01*
X90336666Y-71572380D02*
X90336666Y-70572380D01*
X90336666Y-71524761D02*
X90241428Y-71572380D01*
X90050952Y-71572380D01*
X89955714Y-71524761D01*
X89908095Y-71477142D01*
X89860476Y-71381904D01*
X89860476Y-71096190D01*
X89908095Y-71000952D01*
X89955714Y-70953333D01*
X90050952Y-70905714D01*
X90241428Y-70905714D01*
X90336666Y-70953333D01*
X91241428Y-71572380D02*
X91241428Y-71048571D01*
X91193809Y-70953333D01*
X91098571Y-70905714D01*
X90908095Y-70905714D01*
X90812857Y-70953333D01*
X91241428Y-71524761D02*
X91146190Y-71572380D01*
X90908095Y-71572380D01*
X90812857Y-71524761D01*
X90765238Y-71429523D01*
X90765238Y-71334285D01*
X90812857Y-71239047D01*
X90908095Y-71191428D01*
X91146190Y-71191428D01*
X91241428Y-71143809D01*
X89265238Y-68984761D02*
X89360476Y-69032380D01*
X89550952Y-69032380D01*
X89646190Y-68984761D01*
X89693809Y-68889523D01*
X89693809Y-68841904D01*
X89646190Y-68746666D01*
X89550952Y-68699047D01*
X89408095Y-68699047D01*
X89312857Y-68651428D01*
X89265238Y-68556190D01*
X89265238Y-68508571D01*
X89312857Y-68413333D01*
X89408095Y-68365714D01*
X89550952Y-68365714D01*
X89646190Y-68413333D01*
X90550952Y-68984761D02*
X90455714Y-69032380D01*
X90265238Y-69032380D01*
X90170000Y-68984761D01*
X90122380Y-68937142D01*
X90074761Y-68841904D01*
X90074761Y-68556190D01*
X90122380Y-68460952D01*
X90170000Y-68413333D01*
X90265238Y-68365714D01*
X90455714Y-68365714D01*
X90550952Y-68413333D01*
X91122380Y-69032380D02*
X91027142Y-68984761D01*
X90979523Y-68889523D01*
X90979523Y-68032380D01*
X89312857Y-66111428D02*
X90074761Y-66111428D01*
X89693809Y-66492380D02*
X89693809Y-65730476D01*
X91027142Y-65492380D02*
X90550952Y-65492380D01*
X90503333Y-65968571D01*
X90550952Y-65920952D01*
X90646190Y-65873333D01*
X90884285Y-65873333D01*
X90979523Y-65920952D01*
X91027142Y-65968571D01*
X91074761Y-66063809D01*
X91074761Y-66301904D01*
X91027142Y-66397142D01*
X90979523Y-66444761D01*
X90884285Y-66492380D01*
X90646190Y-66492380D01*
X90550952Y-66444761D01*
X90503333Y-66397142D01*
X89479523Y-63285714D02*
X89479523Y-64095238D01*
X89431904Y-64190476D01*
X89384285Y-64238095D01*
X89289047Y-64285714D01*
X89146190Y-64285714D01*
X89050952Y-64238095D01*
X89479523Y-63904761D02*
X89384285Y-63952380D01*
X89193809Y-63952380D01*
X89098571Y-63904761D01*
X89050952Y-63857142D01*
X89003333Y-63761904D01*
X89003333Y-63476190D01*
X89050952Y-63380952D01*
X89098571Y-63333333D01*
X89193809Y-63285714D01*
X89384285Y-63285714D01*
X89479523Y-63333333D01*
X89955714Y-63285714D02*
X89955714Y-63952380D01*
X89955714Y-63380952D02*
X90003333Y-63333333D01*
X90098571Y-63285714D01*
X90241428Y-63285714D01*
X90336666Y-63333333D01*
X90384285Y-63428571D01*
X90384285Y-63952380D01*
X91289047Y-63952380D02*
X91289047Y-62952380D01*
X91289047Y-63904761D02*
X91193809Y-63952380D01*
X91003333Y-63952380D01*
X90908095Y-63904761D01*
X90860476Y-63857142D01*
X90812857Y-63761904D01*
X90812857Y-63476190D01*
X90860476Y-63380952D01*
X90908095Y-63333333D01*
X91003333Y-63285714D01*
X91193809Y-63285714D01*
X91289047Y-63333333D01*
X83717142Y-91225714D02*
X83717142Y-91892380D01*
X83288571Y-91225714D02*
X83288571Y-91749523D01*
X83336190Y-91844761D01*
X83431428Y-91892380D01*
X83574285Y-91892380D01*
X83669523Y-91844761D01*
X83717142Y-91797142D01*
X84145714Y-91844761D02*
X84240952Y-91892380D01*
X84431428Y-91892380D01*
X84526666Y-91844761D01*
X84574285Y-91749523D01*
X84574285Y-91701904D01*
X84526666Y-91606666D01*
X84431428Y-91559047D01*
X84288571Y-91559047D01*
X84193333Y-91511428D01*
X84145714Y-91416190D01*
X84145714Y-91368571D01*
X84193333Y-91273333D01*
X84288571Y-91225714D01*
X84431428Y-91225714D01*
X84526666Y-91273333D01*
X85002857Y-91892380D02*
X85002857Y-90892380D01*
X85002857Y-91273333D02*
X85098095Y-91225714D01*
X85288571Y-91225714D01*
X85383809Y-91273333D01*
X85431428Y-91320952D01*
X85479047Y-91416190D01*
X85479047Y-91701904D01*
X85431428Y-91797142D01*
X85383809Y-91844761D01*
X85288571Y-91892380D01*
X85098095Y-91892380D01*
X85002857Y-91844761D01*
X86669523Y-91892380D02*
X86669523Y-90892380D01*
X87098095Y-91892380D02*
X87098095Y-91368571D01*
X87050476Y-91273333D01*
X86955238Y-91225714D01*
X86812380Y-91225714D01*
X86717142Y-91273333D01*
X86669523Y-91320952D01*
X87955238Y-91844761D02*
X87860000Y-91892380D01*
X87669523Y-91892380D01*
X87574285Y-91844761D01*
X87526666Y-91749523D01*
X87526666Y-91368571D01*
X87574285Y-91273333D01*
X87669523Y-91225714D01*
X87860000Y-91225714D01*
X87955238Y-91273333D01*
X88002857Y-91368571D01*
X88002857Y-91463809D01*
X87526666Y-91559047D01*
X88431428Y-91892380D02*
X88431428Y-91225714D01*
X88431428Y-91416190D02*
X88479047Y-91320952D01*
X88526666Y-91273333D01*
X88621904Y-91225714D01*
X88717142Y-91225714D01*
X89431428Y-91844761D02*
X89336190Y-91892380D01*
X89145714Y-91892380D01*
X89050476Y-91844761D01*
X89002857Y-91749523D01*
X89002857Y-91368571D01*
X89050476Y-91273333D01*
X89145714Y-91225714D01*
X89336190Y-91225714D01*
X89431428Y-91273333D01*
X89479047Y-91368571D01*
X89479047Y-91463809D01*
X89002857Y-91559047D01*
X82026666Y-76652380D02*
X82026666Y-76128571D01*
X81979047Y-76033333D01*
X81883809Y-75985714D01*
X81693333Y-75985714D01*
X81598095Y-76033333D01*
X82026666Y-76604761D02*
X81931428Y-76652380D01*
X81693333Y-76652380D01*
X81598095Y-76604761D01*
X81550476Y-76509523D01*
X81550476Y-76414285D01*
X81598095Y-76319047D01*
X81693333Y-76271428D01*
X81931428Y-76271428D01*
X82026666Y-76223809D01*
X82502857Y-76652380D02*
X82502857Y-75985714D01*
X82502857Y-76176190D02*
X82550476Y-76080952D01*
X82598095Y-76033333D01*
X82693333Y-75985714D01*
X82788571Y-75985714D01*
X83550476Y-76652380D02*
X83550476Y-75652380D01*
X83550476Y-76604761D02*
X83455238Y-76652380D01*
X83264761Y-76652380D01*
X83169523Y-76604761D01*
X83121904Y-76557142D01*
X83074285Y-76461904D01*
X83074285Y-76176190D01*
X83121904Y-76080952D01*
X83169523Y-76033333D01*
X83264761Y-75985714D01*
X83455238Y-75985714D01*
X83550476Y-76033333D01*
X84455238Y-75985714D02*
X84455238Y-76652380D01*
X84026666Y-75985714D02*
X84026666Y-76509523D01*
X84074285Y-76604761D01*
X84169523Y-76652380D01*
X84312380Y-76652380D01*
X84407619Y-76604761D01*
X84455238Y-76557142D01*
X84931428Y-76652380D02*
X84931428Y-75985714D01*
X84931428Y-75652380D02*
X84883809Y-75700000D01*
X84931428Y-75747619D01*
X84979047Y-75700000D01*
X84931428Y-75652380D01*
X84931428Y-75747619D01*
X85407619Y-75985714D02*
X85407619Y-76652380D01*
X85407619Y-76080952D02*
X85455238Y-76033333D01*
X85550476Y-75985714D01*
X85693333Y-75985714D01*
X85788571Y-76033333D01*
X85836190Y-76128571D01*
X85836190Y-76652380D01*
X86455238Y-76652380D02*
X86360000Y-76604761D01*
X86312380Y-76557142D01*
X86264761Y-76461904D01*
X86264761Y-76176190D01*
X86312380Y-76080952D01*
X86360000Y-76033333D01*
X86455238Y-75985714D01*
X86598095Y-75985714D01*
X86693333Y-76033333D01*
X86740952Y-76080952D01*
X86788571Y-76176190D01*
X86788571Y-76461904D01*
X86740952Y-76557142D01*
X86693333Y-76604761D01*
X86598095Y-76652380D01*
X86455238Y-76652380D01*
X87979047Y-75985714D02*
X87979047Y-76652380D01*
X87979047Y-76080952D02*
X88026666Y-76033333D01*
X88121904Y-75985714D01*
X88264761Y-75985714D01*
X88360000Y-76033333D01*
X88407619Y-76128571D01*
X88407619Y-76652380D01*
X89312380Y-76652380D02*
X89312380Y-76128571D01*
X89264761Y-76033333D01*
X89169523Y-75985714D01*
X88979047Y-75985714D01*
X88883809Y-76033333D01*
X89312380Y-76604761D02*
X89217142Y-76652380D01*
X88979047Y-76652380D01*
X88883809Y-76604761D01*
X88836190Y-76509523D01*
X88836190Y-76414285D01*
X88883809Y-76319047D01*
X88979047Y-76271428D01*
X89217142Y-76271428D01*
X89312380Y-76223809D01*
X89788571Y-75985714D02*
X89788571Y-76652380D01*
X89788571Y-76080952D02*
X89836190Y-76033333D01*
X89931428Y-75985714D01*
X90074285Y-75985714D01*
X90169523Y-76033333D01*
X90217142Y-76128571D01*
X90217142Y-76652380D01*
X90836190Y-76652380D02*
X90740952Y-76604761D01*
X90693333Y-76557142D01*
X90645714Y-76461904D01*
X90645714Y-76176190D01*
X90693333Y-76080952D01*
X90740952Y-76033333D01*
X90836190Y-75985714D01*
X90979047Y-75985714D01*
X91074285Y-76033333D01*
X91121904Y-76080952D01*
X91169523Y-76176190D01*
X91169523Y-76461904D01*
X91121904Y-76557142D01*
X91074285Y-76604761D01*
X90979047Y-76652380D01*
X90836190Y-76652380D01*
X104989523Y-74112380D02*
X104989523Y-73588571D01*
X104941904Y-73493333D01*
X104846666Y-73445714D01*
X104656190Y-73445714D01*
X104560952Y-73493333D01*
X104989523Y-74064761D02*
X104894285Y-74112380D01*
X104656190Y-74112380D01*
X104560952Y-74064761D01*
X104513333Y-73969523D01*
X104513333Y-73874285D01*
X104560952Y-73779047D01*
X104656190Y-73731428D01*
X104894285Y-73731428D01*
X104989523Y-73683809D01*
X105894285Y-73445714D02*
X105894285Y-74112380D01*
X105656190Y-73064761D02*
X105418095Y-73779047D01*
X106037142Y-73779047D01*
X106465714Y-74112380D02*
X106656190Y-74112380D01*
X106751428Y-74064761D01*
X106799047Y-74017142D01*
X106894285Y-73874285D01*
X106941904Y-73683809D01*
X106941904Y-73302857D01*
X106894285Y-73207619D01*
X106846666Y-73160000D01*
X106751428Y-73112380D01*
X106560952Y-73112380D01*
X106465714Y-73160000D01*
X106418095Y-73207619D01*
X106370476Y-73302857D01*
X106370476Y-73540952D01*
X106418095Y-73636190D01*
X106465714Y-73683809D01*
X106560952Y-73731428D01*
X106751428Y-73731428D01*
X106846666Y-73683809D01*
X106894285Y-73636190D01*
X106941904Y-73540952D01*
X107513333Y-73540952D02*
X107418095Y-73493333D01*
X107370476Y-73445714D01*
X107322857Y-73350476D01*
X107322857Y-73302857D01*
X107370476Y-73207619D01*
X107418095Y-73160000D01*
X107513333Y-73112380D01*
X107703809Y-73112380D01*
X107799047Y-73160000D01*
X107846666Y-73207619D01*
X107894285Y-73302857D01*
X107894285Y-73350476D01*
X107846666Y-73445714D01*
X107799047Y-73493333D01*
X107703809Y-73540952D01*
X107513333Y-73540952D01*
X107418095Y-73588571D01*
X107370476Y-73636190D01*
X107322857Y-73731428D01*
X107322857Y-73921904D01*
X107370476Y-74017142D01*
X107418095Y-74064761D01*
X107513333Y-74112380D01*
X107703809Y-74112380D01*
X107799047Y-74064761D01*
X107846666Y-74017142D01*
X107894285Y-73921904D01*
X107894285Y-73731428D01*
X107846666Y-73636190D01*
X107799047Y-73588571D01*
X107703809Y-73540952D01*
X108465714Y-73540952D02*
X108370476Y-73493333D01*
X108322857Y-73445714D01*
X108275238Y-73350476D01*
X108275238Y-73302857D01*
X108322857Y-73207619D01*
X108370476Y-73160000D01*
X108465714Y-73112380D01*
X108656190Y-73112380D01*
X108751428Y-73160000D01*
X108799047Y-73207619D01*
X108846666Y-73302857D01*
X108846666Y-73350476D01*
X108799047Y-73445714D01*
X108751428Y-73493333D01*
X108656190Y-73540952D01*
X108465714Y-73540952D01*
X108370476Y-73588571D01*
X108322857Y-73636190D01*
X108275238Y-73731428D01*
X108275238Y-73921904D01*
X108322857Y-74017142D01*
X108370476Y-74064761D01*
X108465714Y-74112380D01*
X108656190Y-74112380D01*
X108751428Y-74064761D01*
X108799047Y-74017142D01*
X108846666Y-73921904D01*
X108846666Y-73731428D01*
X108799047Y-73636190D01*
X108751428Y-73588571D01*
X108656190Y-73540952D01*
X144089523Y-81065714D02*
X144089523Y-81875238D01*
X144041904Y-81970476D01*
X143994285Y-82018095D01*
X143899047Y-82065714D01*
X143756190Y-82065714D01*
X143660952Y-82018095D01*
X144089523Y-81684761D02*
X143994285Y-81732380D01*
X143803809Y-81732380D01*
X143708571Y-81684761D01*
X143660952Y-81637142D01*
X143613333Y-81541904D01*
X143613333Y-81256190D01*
X143660952Y-81160952D01*
X143708571Y-81113333D01*
X143803809Y-81065714D01*
X143994285Y-81065714D01*
X144089523Y-81113333D01*
X144565714Y-81065714D02*
X144565714Y-81732380D01*
X144565714Y-81160952D02*
X144613333Y-81113333D01*
X144708571Y-81065714D01*
X144851428Y-81065714D01*
X144946666Y-81113333D01*
X144994285Y-81208571D01*
X144994285Y-81732380D01*
X145899047Y-81732380D02*
X145899047Y-80732380D01*
X145899047Y-81684761D02*
X145803809Y-81732380D01*
X145613333Y-81732380D01*
X145518095Y-81684761D01*
X145470476Y-81637142D01*
X145422857Y-81541904D01*
X145422857Y-81256190D01*
X145470476Y-81160952D01*
X145518095Y-81113333D01*
X145613333Y-81065714D01*
X145803809Y-81065714D01*
X145899047Y-81113333D01*
X124015714Y-81351428D02*
X124777619Y-81351428D01*
X124396666Y-81732380D02*
X124396666Y-80970476D01*
X125777619Y-81732380D02*
X125206190Y-81732380D01*
X125491904Y-81732380D02*
X125491904Y-80732380D01*
X125396666Y-80875238D01*
X125301428Y-80970476D01*
X125206190Y-81018095D01*
X126158571Y-80827619D02*
X126206190Y-80780000D01*
X126301428Y-80732380D01*
X126539523Y-80732380D01*
X126634761Y-80780000D01*
X126682380Y-80827619D01*
X126730000Y-80922857D01*
X126730000Y-81018095D01*
X126682380Y-81160952D01*
X126110952Y-81732380D01*
X126730000Y-81732380D01*
X127063333Y-81065714D02*
X127301428Y-81732380D01*
X127539523Y-81065714D01*
%TO.C,U1*%
X101343095Y-69597380D02*
X101343095Y-70406904D01*
X101390714Y-70502142D01*
X101438333Y-70549761D01*
X101533571Y-70597380D01*
X101724047Y-70597380D01*
X101819285Y-70549761D01*
X101866904Y-70502142D01*
X101914523Y-70406904D01*
X101914523Y-69597380D01*
X102914523Y-70597380D02*
X102343095Y-70597380D01*
X102628809Y-70597380D02*
X102628809Y-69597380D01*
X102533571Y-69740238D01*
X102438333Y-69835476D01*
X102343095Y-69883095D01*
%TO.C,R8*%
X107132380Y-61126666D02*
X106656190Y-61460000D01*
X107132380Y-61698095D02*
X106132380Y-61698095D01*
X106132380Y-61317142D01*
X106180000Y-61221904D01*
X106227619Y-61174285D01*
X106322857Y-61126666D01*
X106465714Y-61126666D01*
X106560952Y-61174285D01*
X106608571Y-61221904D01*
X106656190Y-61317142D01*
X106656190Y-61698095D01*
X106560952Y-60555238D02*
X106513333Y-60650476D01*
X106465714Y-60698095D01*
X106370476Y-60745714D01*
X106322857Y-60745714D01*
X106227619Y-60698095D01*
X106180000Y-60650476D01*
X106132380Y-60555238D01*
X106132380Y-60364761D01*
X106180000Y-60269523D01*
X106227619Y-60221904D01*
X106322857Y-60174285D01*
X106370476Y-60174285D01*
X106465714Y-60221904D01*
X106513333Y-60269523D01*
X106560952Y-60364761D01*
X106560952Y-60555238D01*
X106608571Y-60650476D01*
X106656190Y-60698095D01*
X106751428Y-60745714D01*
X106941904Y-60745714D01*
X107037142Y-60698095D01*
X107084761Y-60650476D01*
X107132380Y-60555238D01*
X107132380Y-60364761D01*
X107084761Y-60269523D01*
X107037142Y-60221904D01*
X106941904Y-60174285D01*
X106751428Y-60174285D01*
X106656190Y-60221904D01*
X106608571Y-60269523D01*
X106560952Y-60364761D01*
%TO.C,R7*%
X102052380Y-61126666D02*
X101576190Y-61460000D01*
X102052380Y-61698095D02*
X101052380Y-61698095D01*
X101052380Y-61317142D01*
X101100000Y-61221904D01*
X101147619Y-61174285D01*
X101242857Y-61126666D01*
X101385714Y-61126666D01*
X101480952Y-61174285D01*
X101528571Y-61221904D01*
X101576190Y-61317142D01*
X101576190Y-61698095D01*
X101052380Y-60793333D02*
X101052380Y-60126666D01*
X102052380Y-60555238D01*
%TO.C,R6*%
X117292380Y-61126666D02*
X116816190Y-61460000D01*
X117292380Y-61698095D02*
X116292380Y-61698095D01*
X116292380Y-61317142D01*
X116340000Y-61221904D01*
X116387619Y-61174285D01*
X116482857Y-61126666D01*
X116625714Y-61126666D01*
X116720952Y-61174285D01*
X116768571Y-61221904D01*
X116816190Y-61317142D01*
X116816190Y-61698095D01*
X116292380Y-60269523D02*
X116292380Y-60460000D01*
X116340000Y-60555238D01*
X116387619Y-60602857D01*
X116530476Y-60698095D01*
X116720952Y-60745714D01*
X117101904Y-60745714D01*
X117197142Y-60698095D01*
X117244761Y-60650476D01*
X117292380Y-60555238D01*
X117292380Y-60364761D01*
X117244761Y-60269523D01*
X117197142Y-60221904D01*
X117101904Y-60174285D01*
X116863809Y-60174285D01*
X116768571Y-60221904D01*
X116720952Y-60269523D01*
X116673333Y-60364761D01*
X116673333Y-60555238D01*
X116720952Y-60650476D01*
X116768571Y-60698095D01*
X116863809Y-60745714D01*
%TO.C,R5*%
X112212380Y-61126666D02*
X111736190Y-61460000D01*
X112212380Y-61698095D02*
X111212380Y-61698095D01*
X111212380Y-61317142D01*
X111260000Y-61221904D01*
X111307619Y-61174285D01*
X111402857Y-61126666D01*
X111545714Y-61126666D01*
X111640952Y-61174285D01*
X111688571Y-61221904D01*
X111736190Y-61317142D01*
X111736190Y-61698095D01*
X111212380Y-60221904D02*
X111212380Y-60698095D01*
X111688571Y-60745714D01*
X111640952Y-60698095D01*
X111593333Y-60602857D01*
X111593333Y-60364761D01*
X111640952Y-60269523D01*
X111688571Y-60221904D01*
X111783809Y-60174285D01*
X112021904Y-60174285D01*
X112117142Y-60221904D01*
X112164761Y-60269523D01*
X112212380Y-60364761D01*
X112212380Y-60602857D01*
X112164761Y-60698095D01*
X112117142Y-60745714D01*
%TO.C,R4*%
X127452380Y-61126666D02*
X126976190Y-61460000D01*
X127452380Y-61698095D02*
X126452380Y-61698095D01*
X126452380Y-61317142D01*
X126500000Y-61221904D01*
X126547619Y-61174285D01*
X126642857Y-61126666D01*
X126785714Y-61126666D01*
X126880952Y-61174285D01*
X126928571Y-61221904D01*
X126976190Y-61317142D01*
X126976190Y-61698095D01*
X126785714Y-60269523D02*
X127452380Y-60269523D01*
X126404761Y-60507619D02*
X127119047Y-60745714D01*
X127119047Y-60126666D01*
%TO.C,R3*%
X122372380Y-61126666D02*
X121896190Y-61460000D01*
X122372380Y-61698095D02*
X121372380Y-61698095D01*
X121372380Y-61317142D01*
X121420000Y-61221904D01*
X121467619Y-61174285D01*
X121562857Y-61126666D01*
X121705714Y-61126666D01*
X121800952Y-61174285D01*
X121848571Y-61221904D01*
X121896190Y-61317142D01*
X121896190Y-61698095D01*
X121372380Y-60793333D02*
X121372380Y-60174285D01*
X121753333Y-60507619D01*
X121753333Y-60364761D01*
X121800952Y-60269523D01*
X121848571Y-60221904D01*
X121943809Y-60174285D01*
X122181904Y-60174285D01*
X122277142Y-60221904D01*
X122324761Y-60269523D01*
X122372380Y-60364761D01*
X122372380Y-60650476D01*
X122324761Y-60745714D01*
X122277142Y-60793333D01*
%TO.C,R2*%
X63333333Y-79192380D02*
X63000000Y-78716190D01*
X62761904Y-79192380D02*
X62761904Y-78192380D01*
X63142857Y-78192380D01*
X63238095Y-78240000D01*
X63285714Y-78287619D01*
X63333333Y-78382857D01*
X63333333Y-78525714D01*
X63285714Y-78620952D01*
X63238095Y-78668571D01*
X63142857Y-78716190D01*
X62761904Y-78716190D01*
X63714285Y-78287619D02*
X63761904Y-78240000D01*
X63857142Y-78192380D01*
X64095238Y-78192380D01*
X64190476Y-78240000D01*
X64238095Y-78287619D01*
X64285714Y-78382857D01*
X64285714Y-78478095D01*
X64238095Y-78620952D01*
X63666666Y-79192380D01*
X64285714Y-79192380D01*
%TO.C,R1*%
X63333333Y-74112380D02*
X63000000Y-73636190D01*
X62761904Y-74112380D02*
X62761904Y-73112380D01*
X63142857Y-73112380D01*
X63238095Y-73160000D01*
X63285714Y-73207619D01*
X63333333Y-73302857D01*
X63333333Y-73445714D01*
X63285714Y-73540952D01*
X63238095Y-73588571D01*
X63142857Y-73636190D01*
X62761904Y-73636190D01*
X64285714Y-74112380D02*
X63714285Y-74112380D01*
X64000000Y-74112380D02*
X64000000Y-73112380D01*
X63904761Y-73255238D01*
X63809523Y-73350476D01*
X63714285Y-73398095D01*
%TO.C,J7*%
X134286666Y-75692380D02*
X134286666Y-76406666D01*
X134239047Y-76549523D01*
X134143809Y-76644761D01*
X134000952Y-76692380D01*
X133905714Y-76692380D01*
X134667619Y-75692380D02*
X135334285Y-75692380D01*
X134905714Y-76692380D01*
%TO.C,J6*%
X73326666Y-83062380D02*
X73326666Y-83776666D01*
X73279047Y-83919523D01*
X73183809Y-84014761D01*
X73040952Y-84062380D01*
X72945714Y-84062380D01*
X74231428Y-83062380D02*
X74040952Y-83062380D01*
X73945714Y-83110000D01*
X73898095Y-83157619D01*
X73802857Y-83300476D01*
X73755238Y-83490952D01*
X73755238Y-83871904D01*
X73802857Y-83967142D01*
X73850476Y-84014761D01*
X73945714Y-84062380D01*
X74136190Y-84062380D01*
X74231428Y-84014761D01*
X74279047Y-83967142D01*
X74326666Y-83871904D01*
X74326666Y-83633809D01*
X74279047Y-83538571D01*
X74231428Y-83490952D01*
X74136190Y-83443333D01*
X73945714Y-83443333D01*
X73850476Y-83490952D01*
X73802857Y-83538571D01*
X73755238Y-83633809D01*
%TO.C,J5*%
X98722380Y-51133333D02*
X99436666Y-51133333D01*
X99579523Y-51180952D01*
X99674761Y-51276190D01*
X99722380Y-51419047D01*
X99722380Y-51514285D01*
X98722380Y-50180952D02*
X98722380Y-50657142D01*
X99198571Y-50704761D01*
X99150952Y-50657142D01*
X99103333Y-50561904D01*
X99103333Y-50323809D01*
X99150952Y-50228571D01*
X99198571Y-50180952D01*
X99293809Y-50133333D01*
X99531904Y-50133333D01*
X99627142Y-50180952D01*
X99674761Y-50228571D01*
X99722380Y-50323809D01*
X99722380Y-50561904D01*
X99674761Y-50657142D01*
X99627142Y-50704761D01*
%TO.C,J4*%
X108882380Y-51133333D02*
X109596666Y-51133333D01*
X109739523Y-51180952D01*
X109834761Y-51276190D01*
X109882380Y-51419047D01*
X109882380Y-51514285D01*
X109215714Y-50228571D02*
X109882380Y-50228571D01*
X108834761Y-50466666D02*
X109549047Y-50704761D01*
X109549047Y-50085714D01*
%TO.C,J3*%
X119042380Y-51133333D02*
X119756666Y-51133333D01*
X119899523Y-51180952D01*
X119994761Y-51276190D01*
X120042380Y-51419047D01*
X120042380Y-51514285D01*
X119042380Y-50752380D02*
X119042380Y-50133333D01*
X119423333Y-50466666D01*
X119423333Y-50323809D01*
X119470952Y-50228571D01*
X119518571Y-50180952D01*
X119613809Y-50133333D01*
X119851904Y-50133333D01*
X119947142Y-50180952D01*
X119994761Y-50228571D01*
X120042380Y-50323809D01*
X120042380Y-50609523D01*
X119994761Y-50704761D01*
X119947142Y-50752380D01*
%TO.C,J2*%
X119046666Y-86862380D02*
X119046666Y-87576666D01*
X118999047Y-87719523D01*
X118903809Y-87814761D01*
X118760952Y-87862380D01*
X118665714Y-87862380D01*
X119475238Y-86957619D02*
X119522857Y-86910000D01*
X119618095Y-86862380D01*
X119856190Y-86862380D01*
X119951428Y-86910000D01*
X119999047Y-86957619D01*
X120046666Y-87052857D01*
X120046666Y-87148095D01*
X119999047Y-87290952D01*
X119427619Y-87862380D01*
X120046666Y-87862380D01*
%TO.C,H6*%
X144018095Y-72452380D02*
X144018095Y-71452380D01*
X144018095Y-71928571D02*
X144589523Y-71928571D01*
X144589523Y-72452380D02*
X144589523Y-71452380D01*
X145494285Y-71452380D02*
X145303809Y-71452380D01*
X145208571Y-71500000D01*
X145160952Y-71547619D01*
X145065714Y-71690476D01*
X145018095Y-71880952D01*
X145018095Y-72261904D01*
X145065714Y-72357142D01*
X145113333Y-72404761D01*
X145208571Y-72452380D01*
X145399047Y-72452380D01*
X145494285Y-72404761D01*
X145541904Y-72357142D01*
X145589523Y-72261904D01*
X145589523Y-72023809D01*
X145541904Y-71928571D01*
X145494285Y-71880952D01*
X145399047Y-71833333D01*
X145208571Y-71833333D01*
X145113333Y-71880952D01*
X145065714Y-71928571D01*
X145018095Y-72023809D01*
%TO.C,H5*%
X124968095Y-72312380D02*
X124968095Y-71312380D01*
X124968095Y-71788571D02*
X125539523Y-71788571D01*
X125539523Y-72312380D02*
X125539523Y-71312380D01*
X126491904Y-71312380D02*
X126015714Y-71312380D01*
X125968095Y-71788571D01*
X126015714Y-71740952D01*
X126110952Y-71693333D01*
X126349047Y-71693333D01*
X126444285Y-71740952D01*
X126491904Y-71788571D01*
X126539523Y-71883809D01*
X126539523Y-72121904D01*
X126491904Y-72217142D01*
X126444285Y-72264761D01*
X126349047Y-72312380D01*
X126110952Y-72312380D01*
X126015714Y-72264761D01*
X125968095Y-72217142D01*
%TO.C,H4*%
X146558095Y-85152380D02*
X146558095Y-84152380D01*
X146558095Y-84628571D02*
X147129523Y-84628571D01*
X147129523Y-85152380D02*
X147129523Y-84152380D01*
X148034285Y-84485714D02*
X148034285Y-85152380D01*
X147796190Y-84104761D02*
X147558095Y-84819047D01*
X148177142Y-84819047D01*
%TO.C,H3*%
X50038095Y-49592380D02*
X50038095Y-48592380D01*
X50038095Y-49068571D02*
X50609523Y-49068571D01*
X50609523Y-49592380D02*
X50609523Y-48592380D01*
X50990476Y-48592380D02*
X51609523Y-48592380D01*
X51276190Y-48973333D01*
X51419047Y-48973333D01*
X51514285Y-49020952D01*
X51561904Y-49068571D01*
X51609523Y-49163809D01*
X51609523Y-49401904D01*
X51561904Y-49497142D01*
X51514285Y-49544761D01*
X51419047Y-49592380D01*
X51133333Y-49592380D01*
X51038095Y-49544761D01*
X50990476Y-49497142D01*
%TO.C,H2*%
X146558095Y-49592380D02*
X146558095Y-48592380D01*
X146558095Y-49068571D02*
X147129523Y-49068571D01*
X147129523Y-49592380D02*
X147129523Y-48592380D01*
X147558095Y-48687619D02*
X147605714Y-48640000D01*
X147700952Y-48592380D01*
X147939047Y-48592380D01*
X148034285Y-48640000D01*
X148081904Y-48687619D01*
X148129523Y-48782857D01*
X148129523Y-48878095D01*
X148081904Y-49020952D01*
X147510476Y-49592380D01*
X148129523Y-49592380D01*
%TO.C,H1*%
X50038095Y-85152380D02*
X50038095Y-84152380D01*
X50038095Y-84628571D02*
X50609523Y-84628571D01*
X50609523Y-85152380D02*
X50609523Y-84152380D01*
X51609523Y-85152380D02*
X51038095Y-85152380D01*
X51323809Y-85152380D02*
X51323809Y-84152380D01*
X51228571Y-84295238D01*
X51133333Y-84390476D01*
X51038095Y-84438095D01*
%TO.C,D2*%
X66571904Y-90772380D02*
X66571904Y-89772380D01*
X66810000Y-89772380D01*
X66952857Y-89820000D01*
X67048095Y-89915238D01*
X67095714Y-90010476D01*
X67143333Y-90200952D01*
X67143333Y-90343809D01*
X67095714Y-90534285D01*
X67048095Y-90629523D01*
X66952857Y-90724761D01*
X66810000Y-90772380D01*
X66571904Y-90772380D01*
X67524285Y-89867619D02*
X67571904Y-89820000D01*
X67667142Y-89772380D01*
X67905238Y-89772380D01*
X68000476Y-89820000D01*
X68048095Y-89867619D01*
X68095714Y-89962857D01*
X68095714Y-90058095D01*
X68048095Y-90200952D01*
X67476666Y-90772380D01*
X68095714Y-90772380D01*
%TO.C,D1*%
X58951904Y-90772380D02*
X58951904Y-89772380D01*
X59190000Y-89772380D01*
X59332857Y-89820000D01*
X59428095Y-89915238D01*
X59475714Y-90010476D01*
X59523333Y-90200952D01*
X59523333Y-90343809D01*
X59475714Y-90534285D01*
X59428095Y-90629523D01*
X59332857Y-90724761D01*
X59190000Y-90772380D01*
X58951904Y-90772380D01*
X60475714Y-90772380D02*
X59904285Y-90772380D01*
X60190000Y-90772380D02*
X60190000Y-89772380D01*
X60094761Y-89915238D01*
X59999523Y-90010476D01*
X59904285Y-90058095D01*
%TO.C,C2*%
X139533333Y-66397142D02*
X139485714Y-66444761D01*
X139342857Y-66492380D01*
X139247619Y-66492380D01*
X139104761Y-66444761D01*
X139009523Y-66349523D01*
X138961904Y-66254285D01*
X138914285Y-66063809D01*
X138914285Y-65920952D01*
X138961904Y-65730476D01*
X139009523Y-65635238D01*
X139104761Y-65540000D01*
X139247619Y-65492380D01*
X139342857Y-65492380D01*
X139485714Y-65540000D01*
X139533333Y-65587619D01*
X139914285Y-65587619D02*
X139961904Y-65540000D01*
X140057142Y-65492380D01*
X140295238Y-65492380D01*
X140390476Y-65540000D01*
X140438095Y-65587619D01*
X140485714Y-65682857D01*
X140485714Y-65778095D01*
X140438095Y-65920952D01*
X139866666Y-66492380D01*
X140485714Y-66492380D01*
%TO.C,C1*%
X58253333Y-68937142D02*
X58205714Y-68984761D01*
X58062857Y-69032380D01*
X57967619Y-69032380D01*
X57824761Y-68984761D01*
X57729523Y-68889523D01*
X57681904Y-68794285D01*
X57634285Y-68603809D01*
X57634285Y-68460952D01*
X57681904Y-68270476D01*
X57729523Y-68175238D01*
X57824761Y-68080000D01*
X57967619Y-68032380D01*
X58062857Y-68032380D01*
X58205714Y-68080000D01*
X58253333Y-68127619D01*
X59205714Y-69032380D02*
X58634285Y-69032380D01*
X58920000Y-69032380D02*
X58920000Y-68032380D01*
X58824761Y-68175238D01*
X58729523Y-68270476D01*
X58634285Y-68318095D01*
%TO.C,A1*%
X85645714Y-48426666D02*
X86121904Y-48426666D01*
X85550476Y-48712380D02*
X85883809Y-47712380D01*
X86217142Y-48712380D01*
X87074285Y-48712380D02*
X86502857Y-48712380D01*
X86788571Y-48712380D02*
X86788571Y-47712380D01*
X86693333Y-47855238D01*
X86598095Y-47950476D01*
X86502857Y-47998095D01*
D11*
%TO.C,U1*%
X99060000Y-71120000D02*
X114300000Y-71120000D01*
X114300000Y-71120000D02*
X114300000Y-91440000D01*
X114300000Y-91440000D02*
X99060000Y-91440000D01*
X99060000Y-91440000D02*
X99060000Y-71120000D01*
D12*
X98380000Y-71830000D02*
G75*
G03*
X98380000Y-71830000I-100000J0D01*
G01*
D13*
%TO.C,R8*%
X108120000Y-55890000D02*
X108600000Y-55890000D01*
X104760000Y-66030000D02*
X105240000Y-66030000D01*
X108600000Y-55890000D02*
X108600000Y-66030000D01*
X105240000Y-55890000D02*
X104760000Y-55890000D01*
X104760000Y-55890000D02*
X104760000Y-66030000D01*
X108600000Y-66030000D02*
X108120000Y-66030000D01*
%TO.C,R7*%
X100160000Y-66030000D02*
X99680000Y-66030000D01*
X103520000Y-55890000D02*
X103040000Y-55890000D01*
X99680000Y-66030000D02*
X99680000Y-55890000D01*
X103040000Y-66030000D02*
X103520000Y-66030000D01*
X103520000Y-66030000D02*
X103520000Y-55890000D01*
X99680000Y-55890000D02*
X100160000Y-55890000D01*
%TO.C,R6*%
X118280000Y-55890000D02*
X118760000Y-55890000D01*
X114920000Y-66030000D02*
X115400000Y-66030000D01*
X118760000Y-55890000D02*
X118760000Y-66030000D01*
X115400000Y-55890000D02*
X114920000Y-55890000D01*
X114920000Y-55890000D02*
X114920000Y-66030000D01*
X118760000Y-66030000D02*
X118280000Y-66030000D01*
%TO.C,R5*%
X110320000Y-66030000D02*
X109840000Y-66030000D01*
X113680000Y-55890000D02*
X113200000Y-55890000D01*
X109840000Y-66030000D02*
X109840000Y-55890000D01*
X113200000Y-66030000D02*
X113680000Y-66030000D01*
X113680000Y-66030000D02*
X113680000Y-55890000D01*
X109840000Y-55890000D02*
X110320000Y-55890000D01*
%TO.C,R4*%
X128440000Y-55890000D02*
X128920000Y-55890000D01*
X125080000Y-66030000D02*
X125560000Y-66030000D01*
X128920000Y-55890000D02*
X128920000Y-66030000D01*
X125560000Y-55890000D02*
X125080000Y-55890000D01*
X125080000Y-55890000D02*
X125080000Y-66030000D01*
X128920000Y-66030000D02*
X128440000Y-66030000D01*
%TO.C,R3*%
X120480000Y-66030000D02*
X120000000Y-66030000D01*
X123840000Y-55890000D02*
X123360000Y-55890000D01*
X120000000Y-66030000D02*
X120000000Y-55890000D01*
X123360000Y-66030000D02*
X123840000Y-66030000D01*
X123840000Y-66030000D02*
X123840000Y-55890000D01*
X120000000Y-55890000D02*
X120480000Y-55890000D01*
%TO.C,R2*%
X58430000Y-77300000D02*
X58430000Y-76820000D01*
X68570000Y-80660000D02*
X68570000Y-80180000D01*
X58430000Y-76820000D02*
X68570000Y-76820000D01*
X58430000Y-80180000D02*
X58430000Y-80660000D01*
X58430000Y-80660000D02*
X68570000Y-80660000D01*
X68570000Y-76820000D02*
X68570000Y-77300000D01*
%TO.C,R1*%
X58430000Y-72220000D02*
X58430000Y-71740000D01*
X68570000Y-75580000D02*
X68570000Y-75100000D01*
X58430000Y-71740000D02*
X68570000Y-71740000D01*
X58430000Y-75100000D02*
X58430000Y-75580000D01*
X58430000Y-75580000D02*
X68570000Y-75580000D01*
X68570000Y-71740000D02*
X68570000Y-72220000D01*
%TO.C,J7*%
X139220000Y-83940000D02*
X139220000Y-92540000D01*
X130020000Y-92540000D02*
X130020000Y-78040000D01*
X137220000Y-78040000D02*
X139220000Y-78040000D01*
X139220000Y-78040000D02*
X139220000Y-79340000D01*
X131420000Y-77740000D02*
X129720000Y-77740000D01*
X139220000Y-92540000D02*
X130020000Y-92540000D01*
X130020000Y-78040000D02*
X132020000Y-78040000D01*
X129720000Y-77740000D02*
X129720000Y-79040000D01*
%TO.C,J6*%
X72330000Y-80010000D02*
X72330000Y-72330000D01*
X74990000Y-81280000D02*
X74990000Y-82610000D01*
X74990000Y-72330000D02*
X72330000Y-72330000D01*
X74990000Y-80010000D02*
X72330000Y-80010000D01*
X74990000Y-82610000D02*
X73660000Y-82610000D01*
X74990000Y-80010000D02*
X74990000Y-72330000D01*
%TO.C,J5*%
X108010000Y-52130000D02*
X108010000Y-49470000D01*
X102870000Y-52130000D02*
X108010000Y-52130000D01*
X101600000Y-52130000D02*
X100270000Y-52130000D01*
X102870000Y-49470000D02*
X108010000Y-49470000D01*
X100270000Y-52130000D02*
X100270000Y-50800000D01*
X102870000Y-52130000D02*
X102870000Y-49470000D01*
%TO.C,J4*%
X118170000Y-52130000D02*
X118170000Y-49470000D01*
X113030000Y-52130000D02*
X118170000Y-52130000D01*
X111760000Y-52130000D02*
X110430000Y-52130000D01*
X113030000Y-49470000D02*
X118170000Y-49470000D01*
X110430000Y-52130000D02*
X110430000Y-50800000D01*
X113030000Y-52130000D02*
X113030000Y-49470000D01*
%TO.C,J3*%
X128330000Y-52130000D02*
X128330000Y-49470000D01*
X123190000Y-52130000D02*
X128330000Y-52130000D01*
X121920000Y-52130000D02*
X120590000Y-52130000D01*
X123190000Y-49470000D02*
X128330000Y-49470000D01*
X120590000Y-52130000D02*
X120590000Y-50800000D01*
X123190000Y-52130000D02*
X123190000Y-49470000D01*
%TO.C,J2*%
X118050000Y-83810000D02*
X118050000Y-76130000D01*
X120710000Y-85080000D02*
X120710000Y-86410000D01*
X120710000Y-76130000D02*
X118050000Y-76130000D01*
X120710000Y-83810000D02*
X118050000Y-83810000D01*
X120710000Y-86410000D02*
X119380000Y-86410000D01*
X120710000Y-83810000D02*
X120710000Y-76130000D01*
%TO.C,D2*%
X69870000Y-87905000D02*
X69870000Y-84815000D01*
X69870000Y-84815170D02*
G75*
G03*
X64320000Y-86360462I-2560000J-1544830D01*
G01*
X64320000Y-86359538D02*
G75*
G03*
X69870000Y-87904830I2990000J-462D01*
G01*
X69810000Y-86360000D02*
G75*
G03*
X69810000Y-86360000I-2500000J0D01*
G01*
%TO.C,D1*%
X62250000Y-87905000D02*
X62250000Y-84815000D01*
X62250000Y-84815170D02*
G75*
G03*
X56700000Y-86360462I-2560000J-1544830D01*
G01*
X56700000Y-86359538D02*
G75*
G03*
X62250000Y-87904830I2990000J-462D01*
G01*
X62190000Y-86360000D02*
G75*
G03*
X62190000Y-86360000I-2500000J0D01*
G01*
%TO.C,C2*%
X134839000Y-67339000D02*
X134839000Y-64076000D01*
X133479000Y-72058000D02*
X133479000Y-69821000D01*
X135199000Y-67339000D02*
X135199000Y-63906000D01*
X134039000Y-72569000D02*
X134039000Y-69821000D01*
X135439000Y-73348000D02*
X135439000Y-69821000D01*
X132639000Y-70869000D02*
X132639000Y-66291000D01*
X133959000Y-67339000D02*
X133959000Y-64655000D01*
X132319000Y-70090000D02*
X132319000Y-67070000D01*
X136760000Y-73642000D02*
X136760000Y-63518000D01*
X135719000Y-67339000D02*
X135719000Y-63718000D01*
X135719000Y-73442000D02*
X135719000Y-69821000D01*
X135879000Y-73487000D02*
X135879000Y-69821000D01*
X132519000Y-70617000D02*
X132519000Y-66543000D01*
X132439000Y-70426000D02*
X132439000Y-66734000D01*
X133599000Y-67339000D02*
X133599000Y-64979000D01*
X134279000Y-72746000D02*
X134279000Y-69821000D01*
X136880000Y-73650000D02*
X136880000Y-63510000D01*
X135599000Y-67339000D02*
X135599000Y-63756000D01*
X134079000Y-67339000D02*
X134079000Y-64560000D01*
X133239000Y-71786000D02*
X133239000Y-65374000D01*
X134359000Y-72801000D02*
X134359000Y-69821000D01*
X135119000Y-67339000D02*
X135119000Y-63941000D01*
X134239000Y-67339000D02*
X134239000Y-64442000D01*
X132719000Y-71019000D02*
X132719000Y-66141000D01*
X135679000Y-73430000D02*
X135679000Y-69821000D01*
X135039000Y-73183000D02*
X135039000Y-69821000D01*
X137160000Y-73660000D02*
X137160000Y-63500000D01*
X135079000Y-73201000D02*
X135079000Y-69821000D01*
X142679646Y-71455000D02*
X141679646Y-71455000D01*
X135199000Y-73254000D02*
X135199000Y-69821000D01*
X132239000Y-69810000D02*
X132239000Y-67350000D01*
X134319000Y-72774000D02*
X134319000Y-69821000D01*
X133399000Y-71972000D02*
X133399000Y-65188000D01*
X135679000Y-67339000D02*
X135679000Y-63730000D01*
X135319000Y-73303000D02*
X135319000Y-69821000D01*
X136279000Y-73577000D02*
X136279000Y-63583000D01*
X136119000Y-73545000D02*
X136119000Y-63615000D01*
X132279000Y-69958000D02*
X132279000Y-67202000D01*
X133519000Y-72100000D02*
X133519000Y-69821000D01*
X134879000Y-73105000D02*
X134879000Y-69821000D01*
X136479000Y-73610000D02*
X136479000Y-63550000D01*
X135519000Y-67339000D02*
X135519000Y-63783000D01*
X133879000Y-67339000D02*
X133879000Y-64722000D01*
X136039000Y-73527000D02*
X136039000Y-63633000D01*
X135039000Y-67339000D02*
X135039000Y-63977000D01*
X133799000Y-72369000D02*
X133799000Y-69821000D01*
X133759000Y-67339000D02*
X133759000Y-64827000D01*
X132399000Y-70322000D02*
X132399000Y-66838000D01*
X132919000Y-71350000D02*
X132919000Y-65810000D01*
X135919000Y-67339000D02*
X135919000Y-63662000D01*
X136239000Y-73570000D02*
X136239000Y-63590000D01*
X132559000Y-70705000D02*
X132559000Y-66455000D01*
X134079000Y-72600000D02*
X134079000Y-69821000D01*
X135399000Y-73334000D02*
X135399000Y-69821000D01*
X135439000Y-67339000D02*
X135439000Y-63812000D01*
X134799000Y-67339000D02*
X134799000Y-64097000D01*
X134999000Y-67339000D02*
X134999000Y-63996000D01*
X133679000Y-72259000D02*
X133679000Y-69821000D01*
X136560000Y-73620000D02*
X136560000Y-63540000D01*
X132879000Y-71289000D02*
X132879000Y-65871000D01*
X134439000Y-72853000D02*
X134439000Y-69821000D01*
X132359000Y-70210000D02*
X132359000Y-66950000D01*
X136720000Y-73638000D02*
X136720000Y-63522000D01*
X133079000Y-71580000D02*
X133079000Y-65580000D01*
X135639000Y-73417000D02*
X135639000Y-69821000D01*
X133999000Y-72537000D02*
X133999000Y-69821000D01*
X132839000Y-71225000D02*
X132839000Y-65935000D01*
X134519000Y-72903000D02*
X134519000Y-69821000D01*
X135999000Y-73518000D02*
X135999000Y-63642000D01*
X135279000Y-67339000D02*
X135279000Y-63873000D01*
X134239000Y-72718000D02*
X134239000Y-69821000D01*
X137120000Y-73660000D02*
X137120000Y-63500000D01*
X135319000Y-67339000D02*
X135319000Y-63857000D01*
X133439000Y-72016000D02*
X133439000Y-65144000D01*
X135479000Y-67339000D02*
X135479000Y-63797000D01*
X136199000Y-73562000D02*
X136199000Y-63598000D01*
X134359000Y-67339000D02*
X134359000Y-64359000D01*
X136359000Y-73591000D02*
X136359000Y-63569000D01*
X134319000Y-67339000D02*
X134319000Y-64386000D01*
X132999000Y-71469000D02*
X132999000Y-65691000D01*
X134679000Y-72997000D02*
X134679000Y-69821000D01*
X133559000Y-72141000D02*
X133559000Y-69821000D01*
X133919000Y-72472000D02*
X133919000Y-69821000D01*
X137080000Y-73659000D02*
X137080000Y-63501000D01*
X132199000Y-69642000D02*
X132199000Y-67518000D01*
X136439000Y-73604000D02*
X136439000Y-63556000D01*
X134199000Y-67339000D02*
X134199000Y-64470000D01*
X134119000Y-72630000D02*
X134119000Y-69821000D01*
X134159000Y-67339000D02*
X134159000Y-64500000D01*
X134959000Y-67339000D02*
X134959000Y-64016000D01*
X135759000Y-67339000D02*
X135759000Y-63706000D01*
X133479000Y-67339000D02*
X133479000Y-65102000D01*
X136399000Y-73598000D02*
X136399000Y-63562000D01*
X135879000Y-67339000D02*
X135879000Y-63673000D01*
X132119000Y-69179000D02*
X132119000Y-67981000D01*
X134719000Y-73020000D02*
X134719000Y-69821000D01*
X135279000Y-73287000D02*
X135279000Y-69821000D01*
X134399000Y-72827000D02*
X134399000Y-69821000D01*
X134519000Y-67339000D02*
X134519000Y-64257000D01*
X134959000Y-73144000D02*
X134959000Y-69821000D01*
X133519000Y-67339000D02*
X133519000Y-65060000D01*
X134199000Y-72690000D02*
X134199000Y-69821000D01*
X133119000Y-71634000D02*
X133119000Y-65526000D01*
X134799000Y-73063000D02*
X134799000Y-69821000D01*
X134639000Y-72975000D02*
X134639000Y-69821000D01*
X132679000Y-70945000D02*
X132679000Y-66215000D01*
X133039000Y-71525000D02*
X133039000Y-65635000D01*
X135079000Y-67339000D02*
X135079000Y-63959000D01*
X135359000Y-67339000D02*
X135359000Y-63842000D01*
X135399000Y-67339000D02*
X135399000Y-63826000D01*
X133759000Y-72333000D02*
X133759000Y-69821000D01*
X133639000Y-72220000D02*
X133639000Y-69821000D01*
X134599000Y-72951000D02*
X134599000Y-69821000D01*
X133639000Y-67339000D02*
X133639000Y-64940000D01*
X134919000Y-67339000D02*
X134919000Y-64035000D01*
X135959000Y-73508000D02*
X135959000Y-63652000D01*
X134999000Y-73164000D02*
X134999000Y-69821000D01*
X137040000Y-73658000D02*
X137040000Y-63502000D01*
X142179646Y-71955000D02*
X142179646Y-70955000D01*
X133799000Y-67339000D02*
X133799000Y-64791000D01*
X132799000Y-71159000D02*
X132799000Y-66001000D01*
X135919000Y-73498000D02*
X135919000Y-69821000D01*
X136960000Y-73655000D02*
X136960000Y-63505000D01*
X134759000Y-67339000D02*
X134759000Y-64118000D01*
X135239000Y-67339000D02*
X135239000Y-63890000D01*
X133999000Y-67339000D02*
X133999000Y-64623000D01*
X133159000Y-71686000D02*
X133159000Y-65474000D01*
X136800000Y-73645000D02*
X136800000Y-63515000D01*
X135559000Y-67339000D02*
X135559000Y-63769000D01*
X134559000Y-72927000D02*
X134559000Y-69821000D01*
X132759000Y-71090000D02*
X132759000Y-66070000D01*
X134639000Y-67339000D02*
X134639000Y-64185000D01*
X136920000Y-73653000D02*
X136920000Y-63507000D01*
X133839000Y-72404000D02*
X133839000Y-69821000D01*
X133319000Y-71881000D02*
X133319000Y-65279000D01*
X133279000Y-71834000D02*
X133279000Y-65326000D01*
X134439000Y-67339000D02*
X134439000Y-64307000D01*
X133839000Y-67339000D02*
X133839000Y-64756000D01*
X134919000Y-73125000D02*
X134919000Y-69821000D01*
X134119000Y-67339000D02*
X134119000Y-64530000D01*
X136159000Y-73554000D02*
X136159000Y-63606000D01*
X133959000Y-72505000D02*
X133959000Y-69821000D01*
X135599000Y-73404000D02*
X135599000Y-69821000D01*
X133359000Y-71927000D02*
X133359000Y-65233000D01*
X135799000Y-67339000D02*
X135799000Y-63695000D01*
X135359000Y-73318000D02*
X135359000Y-69821000D01*
X134719000Y-67339000D02*
X134719000Y-64140000D01*
X133879000Y-72438000D02*
X133879000Y-69821000D01*
X133679000Y-67339000D02*
X133679000Y-64901000D01*
X135159000Y-73237000D02*
X135159000Y-69821000D01*
X135639000Y-67339000D02*
X135639000Y-63743000D01*
X135479000Y-73363000D02*
X135479000Y-69821000D01*
X134679000Y-67339000D02*
X134679000Y-64163000D01*
X136680000Y-73634000D02*
X136680000Y-63526000D01*
X136079000Y-73536000D02*
X136079000Y-63624000D01*
X133719000Y-67339000D02*
X133719000Y-64864000D01*
X137000000Y-73657000D02*
X137000000Y-63503000D01*
X135759000Y-73454000D02*
X135759000Y-69821000D01*
X136319000Y-73584000D02*
X136319000Y-63576000D01*
X132599000Y-70789000D02*
X132599000Y-66371000D01*
X133919000Y-67339000D02*
X133919000Y-64688000D01*
X134399000Y-67339000D02*
X134399000Y-64333000D01*
X135559000Y-73391000D02*
X135559000Y-69821000D01*
X134839000Y-73084000D02*
X134839000Y-69821000D01*
X135839000Y-67339000D02*
X135839000Y-63683000D01*
X136520000Y-73615000D02*
X136520000Y-63545000D01*
X133719000Y-72296000D02*
X133719000Y-69821000D01*
X134479000Y-72878000D02*
X134479000Y-69821000D01*
X134039000Y-67339000D02*
X134039000Y-64591000D01*
X133559000Y-67339000D02*
X133559000Y-65019000D01*
X135119000Y-73219000D02*
X135119000Y-69821000D01*
X134879000Y-67339000D02*
X134879000Y-64055000D01*
X133199000Y-71736000D02*
X133199000Y-65424000D01*
X136640000Y-73630000D02*
X136640000Y-63530000D01*
X136840000Y-73648000D02*
X136840000Y-63512000D01*
X132479000Y-70524000D02*
X132479000Y-66636000D01*
X135519000Y-73377000D02*
X135519000Y-69821000D01*
X133599000Y-72181000D02*
X133599000Y-69821000D01*
X135839000Y-73477000D02*
X135839000Y-69821000D01*
X132159000Y-69442000D02*
X132159000Y-67718000D01*
X135799000Y-73465000D02*
X135799000Y-69821000D01*
X135239000Y-73270000D02*
X135239000Y-69821000D01*
X134159000Y-72660000D02*
X134159000Y-69821000D01*
X132959000Y-71410000D02*
X132959000Y-65750000D01*
X135159000Y-67339000D02*
X135159000Y-63923000D01*
X134559000Y-67339000D02*
X134559000Y-64233000D01*
X134759000Y-73042000D02*
X134759000Y-69821000D01*
X134479000Y-67339000D02*
X134479000Y-64282000D01*
X134279000Y-67339000D02*
X134279000Y-64414000D01*
X134599000Y-67339000D02*
X134599000Y-64209000D01*
X137200000Y-73660000D02*
X137200000Y-63500000D01*
X136600000Y-73625000D02*
X136600000Y-63535000D01*
X142320000Y-68580000D02*
G75*
G03*
X142320000Y-68580000I-5120000J0D01*
G01*
%TO.C,C1*%
X60390000Y-67410000D02*
X64030000Y-67410000D01*
X60390000Y-69750000D02*
X64030000Y-69750000D01*
X60390000Y-69505000D02*
X60390000Y-69750000D01*
X64030000Y-69505000D02*
X64030000Y-69750000D01*
X64030000Y-67410000D02*
X64030000Y-67655000D01*
X60390000Y-67410000D02*
X60390000Y-67655000D01*
%TO.C,A1*%
X80010000Y-52070000D02*
X77340000Y-52070000D01*
X95380000Y-92840000D02*
X95380000Y-49400000D01*
X77340000Y-54610000D02*
X77340000Y-92840000D01*
X80010000Y-90170000D02*
X77340000Y-90170000D01*
X92710000Y-52070000D02*
X92710000Y-90170000D01*
X80010000Y-54610000D02*
X80010000Y-52070000D01*
X92710000Y-90170000D02*
X95380000Y-90170000D01*
X92710000Y-52070000D02*
X95380000Y-52070000D01*
X80010000Y-54610000D02*
X77340000Y-54610000D01*
X95380000Y-49400000D02*
X77340000Y-49400000D01*
X77340000Y-92840000D02*
X95380000Y-92840000D01*
X77340000Y-49400000D02*
X77340000Y-52070000D01*
X80010000Y-54610000D02*
X80010000Y-90170000D01*
%TD*%
M02*
