%TF.GenerationSoftware,KiCad,Pcbnew,(6.0.2)*%
%TF.CreationDate,2022-03-04T14:07:56+01:00*%
%TF.ProjectId,interfacev1,696e7465-7266-4616-9365-76312e6b6963,rev?*%
%TF.SameCoordinates,Original*%
%TF.FileFunction,Soldermask,Top*%
%TF.FilePolarity,Negative*%
%FSLAX46Y46*%
G04 Gerber Fmt 4.6, Leading zero omitted, Abs format (unit mm)*
G04 Created by KiCad (PCBNEW (6.0.2)) date 2022-03-04 14:07:56*
%MOMM*%
%LPD*%
G01*
G04 APERTURE LIST*
%ADD10R,1.530000X1.530000*%
%ADD11C,1.530000*%
%ADD12C,2.400000*%
%ADD13O,2.400000X2.400000*%
%ADD14R,2.000000X2.000000*%
%ADD15C,2.000000*%
%ADD16R,2.000000X3.200000*%
%ADD17R,4.600000X2.000000*%
%ADD18O,4.200000X2.000000*%
%ADD19O,2.000000X4.200000*%
%ADD20R,1.700000X1.700000*%
%ADD21O,1.700000X1.700000*%
%ADD22C,0.800000*%
%ADD23C,6.400000*%
%ADD24R,1.800000X1.800000*%
%ADD25C,1.800000*%
%ADD26C,1.600000*%
%ADD27R,1.600000X1.600000*%
%ADD28O,1.600000X1.600000*%
G04 APERTURE END LIST*
D10*
%TO.C,U1*%
X100330000Y-72390000D03*
D11*
X100330000Y-74930000D03*
X100330000Y-77470000D03*
X100330000Y-80010000D03*
X100330000Y-82550000D03*
X100330000Y-85090000D03*
X100330000Y-87630000D03*
X100330000Y-90170000D03*
X113030000Y-90170000D03*
X113030000Y-87630000D03*
X113030000Y-85090000D03*
X113030000Y-82550000D03*
X113030000Y-80010000D03*
X113030000Y-77470000D03*
X113030000Y-74930000D03*
X113030000Y-72390000D03*
%TD*%
D12*
%TO.C,R8*%
X106680000Y-54610000D03*
D13*
X106680000Y-67310000D03*
%TD*%
D12*
%TO.C,R7*%
X101600000Y-67310000D03*
D13*
X101600000Y-54610000D03*
%TD*%
D12*
%TO.C,R6*%
X116840000Y-54610000D03*
D13*
X116840000Y-67310000D03*
%TD*%
D12*
%TO.C,R5*%
X111760000Y-67310000D03*
D13*
X111760000Y-54610000D03*
%TD*%
D12*
%TO.C,R4*%
X127000000Y-54610000D03*
D13*
X127000000Y-67310000D03*
%TD*%
D12*
%TO.C,R3*%
X121920000Y-67310000D03*
D13*
X121920000Y-54610000D03*
%TD*%
D12*
%TO.C,R2*%
X57150000Y-78740000D03*
D13*
X69850000Y-78740000D03*
%TD*%
D12*
%TO.C,R1*%
X57150000Y-73660000D03*
D13*
X69850000Y-73660000D03*
%TD*%
D14*
%TO.C,MT1*%
X61000000Y-51170000D03*
D15*
X66000000Y-51170000D03*
X63500000Y-51170000D03*
D16*
X69100000Y-58670000D03*
X57900000Y-58670000D03*
D15*
X66000000Y-65670000D03*
X61000000Y-65670000D03*
%TD*%
D17*
%TO.C,J7*%
X134620000Y-78740000D03*
D18*
X134620000Y-85040000D03*
D19*
X139420000Y-81640000D03*
%TD*%
D20*
%TO.C,J6*%
X73660000Y-81280000D03*
D21*
X73660000Y-78740000D03*
X73660000Y-76200000D03*
X73660000Y-73660000D03*
%TD*%
D20*
%TO.C,J5*%
X101600000Y-50800000D03*
D21*
X104140000Y-50800000D03*
X106680000Y-50800000D03*
%TD*%
D20*
%TO.C,J4*%
X111760000Y-50800000D03*
D21*
X114300000Y-50800000D03*
X116840000Y-50800000D03*
%TD*%
D20*
%TO.C,J3*%
X121920000Y-50800000D03*
D21*
X124460000Y-50800000D03*
X127000000Y-50800000D03*
%TD*%
D20*
%TO.C,J2*%
X119380000Y-85080000D03*
D21*
X119380000Y-82540000D03*
X119380000Y-80000000D03*
X119380000Y-77460000D03*
%TD*%
D20*
%TO.C,J1*%
X86360000Y-63500000D03*
D21*
X86360000Y-66040000D03*
X86360000Y-68580000D03*
X86360000Y-71120000D03*
%TD*%
D22*
%TO.C,H6*%
X144780000Y-73800000D03*
X146477056Y-77897056D03*
X146477056Y-74502944D03*
X147180000Y-76200000D03*
D23*
X144780000Y-76200000D03*
D22*
X144780000Y-78600000D03*
X143082944Y-74502944D03*
X143082944Y-77897056D03*
X142380000Y-76200000D03*
%TD*%
%TO.C,H5*%
X125730000Y-73660000D03*
X127427056Y-77757056D03*
X127427056Y-74362944D03*
X128130000Y-76060000D03*
D23*
X125730000Y-76060000D03*
D22*
X125730000Y-78460000D03*
X124032944Y-74362944D03*
X124032944Y-77757056D03*
X123330000Y-76060000D03*
%TD*%
D23*
%TO.C,H4*%
X147320000Y-88900000D03*
%TD*%
%TO.C,H3*%
X50800000Y-53340000D03*
%TD*%
%TO.C,H2*%
X147320000Y-53340000D03*
%TD*%
%TO.C,H1*%
X50800000Y-88900000D03*
%TD*%
D24*
%TO.C,D2*%
X68580000Y-86360000D03*
D25*
X66040000Y-86360000D03*
%TD*%
D24*
%TO.C,D1*%
X60960000Y-86360000D03*
D25*
X58420000Y-86360000D03*
%TD*%
D14*
%TO.C,C2*%
X139700000Y-68580000D03*
D15*
X134700000Y-68580000D03*
%TD*%
D26*
%TO.C,C1*%
X60960000Y-68580000D03*
X63460000Y-68580000D03*
%TD*%
D27*
%TO.C,A1*%
X78740000Y-53340000D03*
D28*
X78740000Y-55880000D03*
X78740000Y-58420000D03*
X78740000Y-60960000D03*
X78740000Y-63500000D03*
X78740000Y-66040000D03*
X78740000Y-68580000D03*
X78740000Y-71120000D03*
X78740000Y-73660000D03*
X78740000Y-76200000D03*
X78740000Y-78740000D03*
X78740000Y-81280000D03*
X78740000Y-83820000D03*
X78740000Y-86360000D03*
X78740000Y-88900000D03*
X93980000Y-88900000D03*
X93980000Y-86360000D03*
X93980000Y-83820000D03*
X93980000Y-81280000D03*
X93980000Y-78740000D03*
X93980000Y-76200000D03*
X93980000Y-73660000D03*
X93980000Y-71120000D03*
X93980000Y-68580000D03*
X93980000Y-66040000D03*
X93980000Y-63500000D03*
X93980000Y-60960000D03*
X93980000Y-58420000D03*
X93980000Y-55880000D03*
X93980000Y-53340000D03*
%TD*%
M02*
