M48
; DRILL file {KiCad (6.0.2)} date ven. 04 mars 2022 14:08:11
; FORMAT={-:-/ absolute / inch / decimal}
; #@! TF.CreationDate,2022-03-04T14:08:11+01:00
; #@! TF.GenerationSoftware,Kicad,Pcbnew,(6.0.2)
; #@! TF.FileFunction,Plated,1,2,PTH
FMAT,2
INCH
; #@! TA.AperFunction,Plated,PTH,ComponentDrill
T1C0.0197
; #@! TA.AperFunction,Plated,PTH,ComponentDrill
T2C0.0315
; #@! TA.AperFunction,Plated,PTH,ComponentDrill
T3C0.0354
; #@! TA.AperFunction,Plated,PTH,ComponentDrill
T4C0.0394
; #@! TA.AperFunction,Plated,PTH,ComponentDrill
T5C0.0402
; #@! TA.AperFunction,Plated,PTH,ComponentDrill
T6C0.0472
; #@! TA.AperFunction,Plated,PTH,ComponentDrill
T7C0.0591
; #@! TA.AperFunction,Plated,PTH,ComponentDrill
T8C0.1260
%
G90
G05
T1
X4.8555Y-2.9945
X4.8832Y-2.9277
X4.8832Y-3.0613
X4.95Y-2.9
X4.95Y-3.089
X5.0168Y-2.9277
X5.0168Y-3.0613
X5.0445Y-2.9945
X5.6055Y-3.0
X5.6332Y-2.9332
X5.6332Y-3.0668
X5.7Y-2.9055
X5.7Y-3.0945
X5.7668Y-2.9332
X5.7668Y-3.0668
X5.7945Y-3.0
T2
X2.4Y-2.7
X2.4984Y-2.7
T3
X2.3Y-3.4
X2.4Y-3.4
X2.6Y-3.4
X2.7Y-3.4
T4
X2.4016Y-2.0146
X2.4016Y-2.5854
X2.5Y-2.0146
X2.5984Y-2.0146
X2.5984Y-2.5854
X2.9Y-2.9
X2.9Y-3.0
X2.9Y-3.1
X2.9Y-3.2
X3.1Y-2.1
X3.1Y-2.2
X3.1Y-2.3
X3.1Y-2.4
X3.1Y-2.5
X3.1Y-2.6
X3.1Y-2.7
X3.1Y-2.8
X3.1Y-2.9
X3.1Y-3.0
X3.1Y-3.1
X3.1Y-3.2
X3.1Y-3.3
X3.1Y-3.4
X3.1Y-3.5
X3.4Y-2.5
X3.4Y-2.6
X3.4Y-2.7
X3.4Y-2.8
X3.7Y-2.1
X3.7Y-2.2
X3.7Y-2.3
X3.7Y-2.4
X3.7Y-2.5
X3.7Y-2.6
X3.7Y-2.7
X3.7Y-2.8
X3.7Y-2.9
X3.7Y-3.0
X3.7Y-3.1
X3.7Y-3.2
X3.7Y-3.3
X3.7Y-3.4
X3.7Y-3.5
X4.0Y-2.0
X4.1Y-2.0
X4.2Y-2.0
X4.4Y-2.0
X4.5Y-2.0
X4.6Y-2.0
X4.7Y-3.0496
X4.7Y-3.1496
X4.7Y-3.2496
X4.7Y-3.3496
X4.8Y-2.0
X4.9Y-2.0
X5.0Y-2.0
X5.3031Y-2.7
X5.5Y-2.7
T5
X3.95Y-2.85
X3.95Y-2.95
X3.95Y-3.05
X3.95Y-3.15
X3.95Y-3.25
X3.95Y-3.35
X3.95Y-3.45
X3.95Y-3.55
X4.45Y-2.85
X4.45Y-2.95
X4.45Y-3.05
X4.45Y-3.15
X4.45Y-3.25
X4.45Y-3.35
X4.45Y-3.45
X4.45Y-3.55
T6
X2.25Y-2.9
X2.25Y-3.1
X2.75Y-2.9
X2.75Y-3.1
X4.0Y-2.15
X4.0Y-2.65
X4.2Y-2.15
X4.2Y-2.65
X4.4Y-2.15
X4.4Y-2.65
X4.6Y-2.15
X4.6Y-2.65
X4.8Y-2.15
X4.8Y-2.65
X5.0Y-2.15
X5.0Y-2.65
T8
X2.0Y-2.1
X2.0Y-3.5
X4.95Y-2.9945
X5.7Y-3.0
X5.8Y-2.1
X5.8Y-3.5
T4
G00X5.2488Y-3.1
M15
G01X5.3512Y-3.1
M16
G05
G00X5.2567Y-3.348
M15
G01X5.3433Y-3.348
M16
G05
G00X5.489Y-3.1709
M15
G01X5.489Y-3.2575
M16
G05
T7
G00X2.2795Y-2.2843
M15
G01X2.2795Y-2.3354
M16
G05
G00X2.7205Y-2.2843
M15
G01X2.7205Y-2.3354
M16
G05
T0
M30
